<svg width="842" height="842" viewBox="0 0 842 842" fill="none" xmlns="http://www.w3.org/2000/svg">
<path d="M125.43 421L129.67 416.76" stroke="#3B38D8" stroke-miterlimit="10"/>
<path d="M138.37 408.06L412.41 134.02" stroke="#3B38D8" stroke-width="2" stroke-miterlimit="10" stroke-dasharray="12.3 12.3"/>
<path d="M416.76 129.67L421 125.43" stroke="#3B38D8" stroke-miterlimit="10"/>
<path d="M425.91 178.94L421.67 183.19" stroke="#49BFEF" stroke-miterlimit="10"/>
<path d="M413.44 191.42L187.3 417.73" stroke="#49BFEF" stroke-width="2" stroke-miterlimit="10" stroke-dasharray="11.63 11.63"/>
<path d="M183.19 421.85L178.94 426.09" stroke="#49BFEF" stroke-miterlimit="10"/>
<path d="M284.59 420.94L288.83 416.7" stroke="#73BB6B" stroke-miterlimit="10"/>
<path d="M297.37 408.17L412.58 292.95" stroke="#73BB6B" stroke-width="2" stroke-miterlimit="10" stroke-dasharray="12.07 12.07"/>
<path d="M416.85 288.69L421.09 284.44" stroke="#73BB6B" stroke-miterlimit="10"/>
<path opacity="0.8" d="M674 168H168V674H674V168Z" stroke="url(#paint0_linear_103_6)" stroke-width="2" stroke-miterlimit="10"/>
<path opacity="0.8" d="M778.792 421.007L420.996 63.2107L63.1995 421.007L420.996 778.803L778.792 421.007Z" stroke="url(#paint1_linear_103_6)" stroke-width="2" stroke-miterlimit="10"/>
<g opacity="0.8">
<path d="M50 421H792" stroke="url(#paint2_linear_103_6)" stroke-miterlimit="10"/>
<path d="M421 50V792" stroke="url(#paint3_linear_103_6)" stroke-miterlimit="10"/>
<path d="M158.66 158.66L683.34 683.34" stroke="url(#paint4_linear_103_6)" stroke-miterlimit="10"/>
<path d="M683.34 158.66L158.66 683.34" stroke="url(#paint5_linear_103_6)" stroke-miterlimit="10"/>
</g>
<g opacity="0.4">
<path d="M500.06 622.91C503.993 618.991 506.445 613.83 506.999 608.306C507.553 602.782 506.175 597.237 503.1 592.615C500.024 587.993 495.441 584.58 490.132 582.957C484.822 581.335 479.115 581.604 473.981 583.718C468.847 585.832 464.605 589.66 461.978 594.55C459.35 599.441 458.499 605.091 459.57 610.539C460.64 615.986 463.566 620.894 467.85 624.426C472.133 627.959 477.508 629.896 483.06 629.91C486.215 629.918 489.34 629.304 492.257 628.102C495.174 626.901 497.826 625.137 500.06 622.91V622.91Z" fill="url(#paint6_linear_103_6)"/>
<path d="M588.12 464.97C584.763 468.326 582.477 472.603 581.551 477.258C580.625 481.914 581.1 486.74 582.917 491.125C584.733 495.511 587.809 499.259 591.756 501.896C595.703 504.534 600.343 505.941 605.09 505.941C609.837 505.941 614.477 504.534 618.424 501.896C622.371 499.259 625.447 495.511 627.263 491.125C629.08 486.74 629.555 481.914 628.629 477.258C627.702 472.603 625.416 468.326 622.06 464.97C617.559 460.47 611.455 457.941 605.09 457.941C598.725 457.941 592.621 460.47 588.12 464.97Z" fill="url(#paint7_linear_103_6)"/>
<path d="M421 1C189 1 1 189 1 421C1 653 189 841 421 841C653 841 841 653 841 421C841 189 652.96 1 421 1ZM618.24 238C623.853 240.88 630.174 242.091 636.454 241.49C642.734 240.888 648.71 238.499 653.674 234.605C658.637 230.712 662.381 225.477 664.461 219.521C666.541 213.565 666.871 207.137 665.41 201C673.435 204.385 682.255 205.423 690.846 203.992C699.437 202.562 707.446 198.722 713.94 192.919C720.435 187.116 725.148 179.588 727.533 171.211C729.917 162.835 729.875 153.953 727.41 145.6C790.45 215.535 827.523 305.022 832.41 399.05C828.245 391.404 821.996 385.098 814.389 380.863C806.782 376.628 798.129 374.639 789.436 375.127C780.743 375.615 772.367 378.56 765.282 383.62C758.197 388.68 752.693 395.646 749.41 403.71C746.099 398.329 741.314 394.012 735.622 391.271C729.93 388.53 723.571 387.481 717.3 388.247C711.029 389.014 705.11 391.564 700.246 395.596C695.382 399.627 691.777 404.97 689.86 410.99C687.91 406.786 684.784 403.236 680.86 400.77C676.937 398.304 672.383 397.026 667.749 397.092C663.115 397.158 658.599 398.563 654.747 401.14C650.894 403.716 647.871 407.352 646.04 411.61C624.9 408.18 592.44 405.99 556.04 405.99C552.3 405.99 548.6 406.01 544.94 406.05C542.602 403.101 539.603 400.744 536.185 399.168C532.767 397.592 529.027 396.842 525.266 396.978C521.505 397.114 517.829 398.133 514.534 399.952C511.239 401.771 508.419 404.34 506.3 407.45H505.98C503.668 404.048 500.52 401.298 496.839 399.462C493.158 397.627 489.067 396.768 484.959 396.969C480.851 397.17 476.863 398.423 473.378 400.609C469.894 402.794 467.029 405.839 465.06 409.45C463.795 404.696 461.769 400.177 459.06 396.07C476.45 383.59 501.13 362.07 527.06 336.12C552.77 310.4 574.15 285.93 586.68 268.56C590.991 270.312 595.719 270.773 600.288 269.887C604.856 269.001 609.069 266.805 612.412 263.568C615.755 260.331 618.085 256.191 619.118 251.653C620.151 247.116 619.843 242.375 618.23 238.01L618.24 238ZM650.81 126.1C644.343 132.58 639.954 140.84 638.203 149.826C636.453 158.812 637.419 168.116 640.98 176.55C634.831 175.084 628.39 175.415 622.423 177.503C616.456 179.592 611.215 183.351 607.323 188.332C603.43 193.314 601.051 199.308 600.467 205.603C599.883 211.898 601.12 218.228 604.03 223.84C599.681 222.248 594.964 221.947 590.449 222.975C585.933 224.004 581.812 226.316 578.581 229.635C575.35 232.953 573.149 237.135 572.242 241.677C571.335 246.218 571.762 250.925 573.47 255.23C556.1 267.76 531.6 289.15 505.85 314.9C479.91 340.9 458.39 365.52 445.85 382.9C441.12 379.792 435.849 377.601 430.31 376.44C433.22 358.71 435.25 332.86 435.83 303.34C438.711 301.091 441.04 298.213 442.64 294.927C444.24 291.641 445.068 288.033 445.061 284.378C445.054 280.723 444.213 277.118 442.601 273.838C440.989 270.557 438.649 267.688 435.76 265.45C435.11 237.53 433.15 213.11 430.39 196.04C434.683 194.233 438.358 191.217 440.966 187.358C443.574 183.498 445.003 178.964 445.078 174.307C445.153 169.649 443.872 165.071 441.39 161.13C438.908 157.188 435.333 154.054 431.1 152.11C437.102 150.174 442.424 146.559 446.436 141.693C450.447 136.826 452.98 130.912 453.735 124.65C454.489 118.389 453.433 112.042 450.693 106.362C447.952 100.682 443.641 95.906 438.27 92.6C446.334 89.3181 453.302 83.8151 458.362 76.7303C463.423 69.6455 466.369 61.27 466.858 52.5771C467.347 43.8843 465.359 35.2312 461.125 27.6234C456.891 20.0157 450.585 13.7657 442.94 9.60001C536.963 14.4921 626.445 51.5644 696.38 114.6C688.449 112.247 680.031 112.076 672.011 114.105C663.991 116.134 656.667 120.288 650.81 126.13V126.1ZM403.72 92.62C398.34 95.9314 394.023 100.718 391.282 106.41C388.542 112.103 387.494 118.463 388.261 124.734C389.029 131.005 391.581 136.923 395.613 141.787C399.646 146.65 404.99 150.254 411.01 152.17C406.806 154.119 403.255 157.244 400.788 161.167C398.321 165.09 397.043 169.644 397.107 174.278C397.172 178.912 398.576 183.428 401.152 187.281C403.727 191.134 407.363 194.158 411.62 195.99C408.85 213.09 406.88 237.6 406.23 265.61C403.394 267.853 401.102 270.707 399.524 273.96C397.947 277.213 397.124 280.78 397.118 284.396C397.113 288.011 397.924 291.581 399.491 294.839C401.058 298.097 403.342 300.958 406.17 303.21C406.74 332.8 408.78 358.7 411.69 376.46C406.132 377.621 400.843 379.82 396.1 382.94C390.97 375.8 384.33 367.44 376.47 358.25C377.332 354.489 377.272 350.575 376.295 346.842C375.319 343.108 373.454 339.667 370.86 336.81C368.266 333.953 365.02 331.765 361.398 330.433C357.777 329.101 353.887 328.664 350.06 329.16C345.59 324.49 340.95 319.73 336.15 314.93C332.99 311.77 329.853 308.68 326.74 305.66C327.2 301.896 326.76 298.076 325.454 294.515C324.149 290.955 322.017 287.755 319.233 285.18C316.449 282.605 313.093 280.728 309.441 279.704C305.79 278.68 301.947 278.538 298.23 279.29L298.17 279.24C298.944 275.361 298.748 271.351 297.598 267.567C296.449 263.782 294.381 260.341 291.581 257.548C288.78 254.755 285.332 252.698 281.545 251.559C277.757 250.42 273.747 250.235 269.87 251.02C270.715 246.832 270.426 242.494 269.035 238.455C267.643 234.416 265.198 230.821 261.953 228.043C258.707 225.264 254.779 223.403 250.573 222.65C246.368 221.897 242.038 222.28 238.03 223.76C240.617 218.729 241.867 213.116 241.66 207.463C241.453 201.809 239.796 196.303 236.848 191.474C233.9 186.645 229.76 182.656 224.825 179.888C219.891 177.12 214.328 175.668 208.67 175.67C206.094 175.672 203.527 175.971 201.02 176.56C204.406 168.535 205.445 159.712 204.014 151.12C202.583 142.528 198.742 134.518 192.937 128.023C187.133 121.528 179.603 116.815 171.225 114.432C162.847 112.048 153.964 112.093 145.61 114.56C215.549 51.5258 305.034 14.4538 399.06 9.56C391.414 13.7249 385.108 19.9741 380.873 27.5812C376.638 35.1884 374.649 43.8412 375.137 52.5339C375.625 61.2267 378.57 69.6025 383.63 76.6878C388.69 83.7731 395.656 89.2771 403.72 92.56V92.62ZM126.14 191.19C132.621 197.655 140.882 202.042 149.868 203.791C158.854 205.54 168.157 204.572 176.59 201.01C175.278 206.494 175.394 212.223 176.926 217.65C178.458 223.077 181.354 228.021 185.34 232.01C190.291 236.971 196.694 240.227 203.619 241.306C210.545 242.385 217.634 241.23 223.86 238.01C222.394 242.017 222.023 246.342 222.785 250.54C223.547 254.738 225.414 258.657 228.194 261.893C230.974 265.13 234.566 267.566 238.601 268.953C242.636 270.339 246.968 270.625 251.15 269.78C250.444 273.264 250.52 276.861 251.373 280.311C252.226 283.762 253.835 286.98 256.084 289.733C258.332 292.485 261.164 294.704 264.375 296.229C267.586 297.754 271.095 298.547 274.65 298.55C276.164 298.548 277.674 298.401 279.16 298.11L279.38 298.37C278.715 301.837 278.825 305.409 279.702 308.829C280.579 312.249 282.201 315.433 284.453 318.152C286.704 320.872 289.529 323.06 292.725 324.56C295.921 326.061 299.409 326.836 302.94 326.83C303.819 326.825 304.696 326.775 305.57 326.68C308.617 329.82 311.737 332.987 314.93 336.18C319.77 341.02 324.553 345.687 329.28 350.18C328.881 353.542 329.2 356.95 330.215 360.18C331.23 363.409 332.918 366.387 335.168 368.917C337.418 371.447 340.178 373.47 343.268 374.855C346.357 376.24 349.705 376.954 353.09 376.95C354.791 376.942 356.487 376.757 358.15 376.4C367.38 384.29 375.78 390.97 382.95 396.11C379.826 400.856 377.625 406.149 376.46 411.71C358.76 408.8 332.95 406.77 303.46 406.19C301.217 403.311 298.345 400.983 295.064 399.383C291.783 397.784 288.18 396.955 284.53 396.961C280.88 396.967 277.28 397.807 274.004 399.417C270.729 401.027 267.864 403.364 265.63 406.25C237.63 406.9 213.15 408.86 196.05 411.62C194.242 407.327 191.225 403.653 187.365 401.046C183.505 398.439 178.971 397.011 174.313 396.937C169.656 396.863 165.078 398.145 161.137 400.628C157.197 403.111 154.063 406.687 152.12 410.92C150.191 404.911 146.578 399.58 141.712 395.562C136.845 391.543 130.928 389.004 124.662 388.246C118.396 387.488 112.044 388.543 106.36 391.286C100.675 394.029 95.8964 398.344 92.59 403.72C89.3071 395.656 83.8032 388.69 76.7178 383.63C69.6325 378.57 61.2567 375.625 52.5639 375.137C43.8712 374.649 35.2184 376.638 27.6112 380.873C20.004 385.108 13.7549 391.414 9.59 399.06C14.4832 305.046 51.5559 215.574 114.59 145.65C112.253 153.583 112.097 162 114.14 170.015C116.183 178.029 120.35 185.344 126.2 191.19H126.14ZM50 467C59.1501 466.984 68.0882 464.243 75.6737 459.126C83.2593 454.009 89.1485 446.748 92.59 438.27C95.9007 443.651 100.686 447.968 106.378 450.709C112.07 453.45 118.429 454.499 124.7 453.733C130.971 452.966 136.89 450.416 141.754 446.384C146.618 442.353 150.223 437.01 152.14 430.99C154.089 435.194 157.214 438.745 161.137 441.212C165.06 443.679 169.614 444.957 174.248 444.893C178.882 444.828 183.398 443.424 187.251 440.848C191.104 438.273 194.128 434.637 195.96 430.38C213.09 433.15 237.64 435.12 265.71 435.76C267.946 438.614 270.8 440.923 274.058 442.513C277.316 444.103 280.893 444.932 284.518 444.939C288.143 444.946 291.723 444.129 294.987 442.551C298.25 440.974 301.114 438.675 303.36 435.83C332.87 435.25 358.71 433.21 376.43 430.3C377.595 435.861 379.796 441.154 382.92 445.9C365.52 458.38 340.85 479.9 314.92 505.85C289.2 531.57 267.83 556.04 255.3 573.41C250.988 571.656 246.258 571.194 241.688 572.081C237.118 572.968 232.905 575.164 229.561 578.403C226.217 581.642 223.887 585.783 222.856 590.323C221.824 594.862 222.135 599.604 223.75 603.97C218.137 601.09 211.816 599.879 205.536 600.48C199.256 601.082 193.28 603.471 188.316 607.365C183.353 611.258 179.609 616.493 177.529 622.449C175.449 628.405 175.119 634.833 176.58 640.97C168.555 637.585 159.735 636.547 151.144 637.978C142.553 639.408 134.544 643.248 128.05 649.051C121.555 654.854 116.842 662.382 114.457 670.759C112.073 679.135 112.115 688.017 114.58 696.37C51.5474 626.439 14.4783 536.959 9.59 442.94C13.5379 450.215 19.3756 456.29 26.4877 460.525C33.5998 464.759 41.7227 466.996 50 467ZM158.66 729.31C166.247 729.306 173.715 727.425 180.399 723.835C187.083 720.245 192.775 715.057 196.968 708.735C201.161 702.412 203.726 695.15 204.433 687.596C205.14 680.042 203.967 672.431 201.02 665.44C203.527 666.029 206.094 666.328 208.67 666.33C214.337 666.332 219.91 664.875 224.85 662.099C229.791 659.322 233.933 655.32 236.878 650.478C239.823 645.636 241.472 640.118 241.665 634.454C241.858 628.79 240.589 623.171 237.98 618.14C242.329 619.728 247.044 620.025 251.558 618.994C256.071 617.963 260.19 615.649 263.418 612.33C266.646 609.011 268.846 604.829 269.751 600.289C270.656 595.748 270.229 591.043 268.52 586.74C285.89 574.22 310.4 552.82 336.15 527.07C362.09 501.13 383.61 476.45 396.1 459.07C400.843 462.194 406.132 464.395 411.69 465.56C408.22 486.68 406 519.35 406 556.02C406 592.38 408.19 624.81 411.61 645.95C407.317 647.757 403.642 650.773 401.034 654.633C398.426 658.492 396.997 663.026 396.922 667.683C396.847 672.341 398.128 676.919 400.61 680.86C403.092 684.802 406.667 687.936 410.9 689.88C404.897 691.814 399.574 695.429 395.561 700.295C391.549 705.161 389.015 711.075 388.259 717.336C387.504 723.598 388.559 729.945 391.299 735.626C394.039 741.307 398.349 746.083 403.72 749.39C395.656 752.673 388.69 758.177 383.63 765.262C378.57 772.347 375.625 780.723 375.137 789.416C374.649 798.109 376.638 806.762 380.873 814.369C385.108 821.976 391.414 828.225 399.06 832.39C305.031 827.523 215.537 790.468 145.59 727.44C149.835 728.684 154.236 729.314 158.66 729.31ZM438.27 749.37C443.651 746.059 447.968 741.274 450.709 735.582C453.45 729.89 454.499 723.531 453.733 717.26C452.966 710.989 450.416 705.07 446.384 700.206C442.353 695.342 437.01 691.737 430.99 689.82C435.194 687.871 438.745 684.746 441.212 680.823C443.679 676.9 444.957 672.346 444.893 667.712C444.828 663.078 443.424 658.562 440.848 654.709C438.273 650.856 434.637 647.832 430.38 646C433.8 624.86 436 592.4 436 556C436 519.33 433.77 486.66 430.31 465.54C435.868 464.375 441.157 462.173 445.9 459.05C458.39 476.44 479.9 501.12 505.9 527.05C510.773 531.917 515.583 536.617 520.33 541.15C519.873 544.941 520.331 548.787 521.666 552.365C523 555.942 525.172 559.149 528 561.715C530.827 564.281 534.229 566.133 537.919 567.115C541.609 568.097 545.481 568.181 549.21 567.36C558.21 575.06 566.42 581.59 573.46 586.67C571.705 590.983 571.242 595.714 572.129 600.286C573.016 604.857 575.214 609.072 578.454 612.416C581.694 615.761 585.838 618.09 590.379 619.121C594.92 620.151 599.663 619.838 604.03 618.22C601.446 623.25 600.197 628.86 600.405 634.512C600.613 640.164 602.27 645.667 605.216 650.494C608.163 655.321 612.301 659.31 617.232 662.078C622.164 664.846 627.725 666.299 633.38 666.3C635.956 666.295 638.523 665.993 641.03 665.4C637.645 673.424 636.607 682.245 638.038 690.836C639.468 699.427 643.308 707.436 649.111 713.93C654.914 720.425 662.442 725.138 670.819 727.523C679.195 729.907 688.077 729.865 696.43 727.4C626.5 790.443 537.015 827.517 442.99 832.4C450.635 828.234 456.941 821.984 461.175 814.377C465.409 806.769 467.397 798.116 466.908 789.423C466.419 780.73 463.473 772.355 458.412 765.27C453.352 758.185 446.384 752.682 438.32 749.4L438.27 749.37ZM715.86 650.81C709.381 644.342 701.12 639.952 692.134 638.201C683.148 636.451 673.844 637.418 665.41 640.98C666.722 635.496 666.606 629.767 665.074 624.34C663.542 618.913 660.646 613.969 656.66 609.98C651.704 605.023 645.3 601.771 638.374 600.692C631.448 599.614 624.359 600.765 618.13 603.98C619.724 599.63 620.025 594.912 618.996 590.395C617.968 585.878 615.654 581.755 612.334 578.524C609.014 575.293 604.83 573.091 600.287 572.186C595.743 571.28 591.035 571.709 586.73 573.42C581.66 566.42 575.15 558.19 567.46 549.21C568.326 545.449 568.269 541.534 567.295 537.799C566.32 534.064 564.457 530.621 561.863 527.762C559.27 524.903 556.024 522.715 552.401 521.382C548.779 520.05 544.888 519.613 541.06 520.11C536.56 515.41 531.893 510.64 527.06 505.8C501.06 479.85 476.43 458.33 459.06 445.85C461.781 441.724 463.807 437.181 465.06 432.4C467.03 435.993 469.887 439.022 473.359 441.198C476.831 443.374 480.802 444.624 484.895 444.831C488.987 445.037 493.064 444.193 496.737 442.377C500.411 440.562 503.558 437.836 505.88 434.46H506.36C508.484 437.539 511.298 440.08 514.578 441.878C517.858 443.677 521.513 444.684 525.251 444.819C528.989 444.954 532.707 444.213 536.108 442.656C539.51 441.099 542.5 438.768 544.84 435.85C548.52 435.85 552.25 435.92 556.02 435.92C592.38 435.92 624.81 433.73 645.95 430.31C647.758 434.603 650.775 438.277 654.635 440.884C658.495 443.491 663.03 444.919 667.687 444.993C672.344 445.067 676.922 443.785 680.863 441.302C684.803 438.819 687.937 435.243 689.88 431.01C691.813 437.016 695.427 442.341 700.294 446.356C705.161 450.37 711.077 452.906 717.341 453.661C723.604 454.417 729.953 453.361 735.635 450.619C741.317 447.877 746.094 443.564 749.4 438.19C752.682 446.254 758.185 453.222 765.27 458.282C772.355 463.343 780.73 466.289 789.423 466.778C798.116 467.267 806.769 465.279 814.377 461.045C821.984 456.811 828.234 450.505 832.4 442.86C827.511 536.884 790.438 626.367 727.4 696.3C729.737 688.38 729.898 679.977 727.868 671.973C725.837 663.968 721.689 656.659 715.86 650.81Z" fill="url(#paint8_linear_103_6)"/>
</g>
<path d="M500.06 622.91C503.992 618.991 506.445 613.83 506.999 608.306C507.553 602.782 506.175 597.237 503.099 592.615C500.024 587.993 495.441 584.58 490.131 582.958C484.822 581.335 479.114 581.604 473.981 583.718C468.847 585.832 464.605 589.66 461.977 594.55C459.35 599.441 458.499 605.091 459.569 610.539C460.64 615.986 463.566 620.894 467.849 624.426C472.133 627.959 477.508 629.896 483.06 629.91C486.214 629.918 489.34 629.304 492.257 628.102C495.174 626.901 497.825 625.137 500.06 622.91V622.91Z" stroke="url(#paint9_linear_103_6)" stroke-miterlimit="10"/>
<path d="M588.12 464.97C584.763 468.326 582.477 472.603 581.551 477.258C580.625 481.914 581.1 486.74 582.917 491.125C584.733 495.511 587.809 499.259 591.756 501.896C595.703 504.534 600.343 505.941 605.09 505.941C609.837 505.941 614.477 504.534 618.424 501.896C622.371 499.259 625.447 495.511 627.263 491.125C629.08 486.74 629.555 481.914 628.629 477.258C627.702 472.603 625.416 468.326 622.06 464.97C617.559 460.47 611.455 457.941 605.09 457.941C598.725 457.941 592.621 460.47 588.12 464.97Z" stroke="url(#paint10_linear_103_6)" stroke-miterlimit="10"/>
<path d="M421 1C189 1 1 189 1 421C1 653 189 841 421 841C653 841 841 653 841 421C841 189 652.96 1 421 1ZM618.24 238C623.853 240.88 630.174 242.091 636.454 241.49C642.734 240.888 648.71 238.499 653.674 234.605C658.637 230.712 662.381 225.477 664.461 219.521C666.541 213.565 666.871 207.137 665.41 201C673.435 204.385 682.255 205.423 690.846 203.992C699.437 202.562 707.446 198.722 713.94 192.919C720.435 187.116 725.148 179.588 727.533 171.211C729.917 162.835 729.875 153.953 727.41 145.6C790.45 215.535 827.523 305.022 832.41 399.05C828.245 391.404 821.996 385.098 814.389 380.863C806.782 376.628 798.129 374.639 789.436 375.127C780.743 375.615 772.367 378.56 765.282 383.62C758.197 388.68 752.693 395.646 749.41 403.71C746.099 398.329 741.314 394.012 735.622 391.271C729.93 388.53 723.571 387.481 717.3 388.247C711.029 389.014 705.11 391.564 700.246 395.596C695.382 399.627 691.777 404.97 689.86 410.99C687.91 406.786 684.784 403.236 680.86 400.77C676.937 398.304 672.383 397.026 667.749 397.092C663.115 397.158 658.599 398.563 654.747 401.14C650.894 403.716 647.871 407.352 646.04 411.61C624.9 408.18 592.44 405.99 556.04 405.99C552.3 405.99 548.6 406.01 544.94 406.05C542.602 403.101 539.603 400.744 536.185 399.168C532.767 397.592 529.027 396.842 525.266 396.978C521.505 397.114 517.829 398.133 514.534 399.952C511.239 401.771 508.419 404.34 506.3 407.45H505.98C503.668 404.048 500.52 401.298 496.839 399.462C493.158 397.627 489.067 396.768 484.959 396.969C480.851 397.17 476.863 398.423 473.378 400.609C469.894 402.794 467.029 405.839 465.06 409.45C463.795 404.696 461.769 400.177 459.06 396.07C476.45 383.59 501.13 362.07 527.06 336.12C552.77 310.4 574.15 285.93 586.68 268.56C590.991 270.312 595.719 270.773 600.288 269.887C604.856 269.001 609.069 266.805 612.412 263.568C615.755 260.331 618.085 256.191 619.118 251.653C620.151 247.116 619.843 242.375 618.23 238.01L618.24 238ZM650.81 126.1C644.343 132.58 639.954 140.84 638.203 149.826C636.453 158.812 637.419 168.116 640.98 176.55C634.831 175.084 628.39 175.415 622.423 177.503C616.456 179.592 611.215 183.351 607.323 188.332C603.43 193.314 601.051 199.308 600.467 205.603C599.883 211.898 601.12 218.228 604.03 223.84C599.681 222.248 594.964 221.947 590.449 222.975C585.933 224.004 581.812 226.316 578.581 229.635C575.35 232.953 573.149 237.135 572.242 241.677C571.335 246.218 571.762 250.925 573.47 255.23C556.1 267.76 531.6 289.15 505.85 314.9C479.91 340.9 458.39 365.52 445.85 382.9C441.12 379.792 435.849 377.601 430.31 376.44C433.22 358.71 435.25 332.86 435.83 303.34C438.711 301.091 441.04 298.213 442.64 294.927C444.24 291.641 445.068 288.033 445.061 284.378C445.054 280.723 444.213 277.118 442.601 273.838C440.989 270.557 438.649 267.688 435.76 265.45C435.11 237.53 433.15 213.11 430.39 196.04C434.683 194.233 438.358 191.217 440.966 187.358C443.574 183.498 445.003 178.964 445.078 174.307C445.153 169.649 443.872 165.071 441.39 161.13C438.908 157.188 435.333 154.054 431.1 152.11C437.102 150.174 442.424 146.559 446.436 141.693C450.447 136.826 452.98 130.912 453.735 124.65C454.489 118.389 453.433 112.042 450.693 106.362C447.952 100.682 443.641 95.906 438.27 92.6C446.334 89.3181 453.302 83.8151 458.362 76.7303C463.423 69.6455 466.369 61.27 466.858 52.5771C467.347 43.8843 465.359 35.2312 461.125 27.6234C456.891 20.0157 450.585 13.7657 442.94 9.60001C536.963 14.4921 626.445 51.5644 696.38 114.6C688.449 112.247 680.031 112.076 672.011 114.105C663.991 116.134 656.667 120.288 650.81 126.13V126.1ZM403.72 92.62C398.34 95.9314 394.023 100.718 391.282 106.41C388.542 112.103 387.494 118.463 388.261 124.734C389.029 131.005 391.581 136.923 395.613 141.787C399.646 146.65 404.99 150.254 411.01 152.17C406.806 154.119 403.255 157.244 400.788 161.167C398.321 165.09 397.043 169.644 397.107 174.278C397.172 178.912 398.576 183.428 401.152 187.281C403.727 191.134 407.363 194.158 411.62 195.99C408.85 213.09 406.88 237.6 406.23 265.61C403.394 267.853 401.102 270.707 399.524 273.96C397.947 277.213 397.124 280.78 397.118 284.396C397.113 288.011 397.924 291.581 399.491 294.839C401.058 298.097 403.342 300.958 406.17 303.21C406.74 332.8 408.78 358.7 411.69 376.46C406.132 377.621 400.843 379.82 396.1 382.94C390.97 375.8 384.33 367.44 376.47 358.25C377.332 354.489 377.272 350.575 376.295 346.842C375.319 343.108 373.454 339.667 370.86 336.81C368.266 333.953 365.02 331.765 361.398 330.433C357.777 329.101 353.887 328.664 350.06 329.16C345.59 324.49 340.95 319.73 336.15 314.93C332.99 311.77 329.853 308.68 326.74 305.66C327.2 301.896 326.76 298.076 325.454 294.515C324.149 290.955 322.017 287.755 319.233 285.18C316.449 282.605 313.093 280.728 309.441 279.704C305.79 278.68 301.947 278.538 298.23 279.29L298.17 279.24C298.944 275.361 298.748 271.351 297.598 267.567C296.449 263.782 294.381 260.341 291.581 257.548C288.78 254.755 285.332 252.698 281.545 251.559C277.757 250.42 273.747 250.235 269.87 251.02C270.715 246.832 270.426 242.494 269.035 238.455C267.643 234.416 265.198 230.821 261.953 228.043C258.707 225.264 254.779 223.403 250.573 222.65C246.368 221.897 242.038 222.28 238.03 223.76C240.617 218.729 241.867 213.116 241.66 207.463C241.453 201.809 239.796 196.303 236.848 191.474C233.9 186.645 229.76 182.656 224.825 179.888C219.891 177.12 214.328 175.668 208.67 175.67C206.094 175.672 203.527 175.971 201.02 176.56C204.406 168.535 205.445 159.712 204.014 151.12C202.583 142.528 198.742 134.518 192.937 128.023C187.133 121.528 179.603 116.815 171.225 114.432C162.847 112.048 153.964 112.093 145.61 114.56C215.549 51.5258 305.034 14.4538 399.06 9.56C391.414 13.7249 385.108 19.9741 380.873 27.5812C376.638 35.1884 374.649 43.8412 375.137 52.5339C375.625 61.2267 378.57 69.6025 383.63 76.6878C388.69 83.7731 395.656 89.2771 403.72 92.56V92.62ZM126.14 191.19C132.621 197.655 140.882 202.042 149.868 203.791C158.854 205.54 168.157 204.572 176.59 201.01C175.278 206.494 175.394 212.223 176.926 217.65C178.458 223.077 181.354 228.021 185.34 232.01V232.01C190.291 236.971 196.694 240.227 203.619 241.306C210.545 242.385 217.634 241.23 223.86 238.01C222.394 242.017 222.023 246.342 222.785 250.54C223.547 254.738 225.414 258.657 228.194 261.893C230.974 265.13 234.566 267.566 238.601 268.953C242.636 270.339 246.968 270.625 251.15 269.78C250.444 273.264 250.52 276.861 251.373 280.311C252.226 283.762 253.835 286.98 256.084 289.733C258.332 292.485 261.164 294.704 264.375 296.229C267.586 297.754 271.095 298.547 274.65 298.55C276.164 298.548 277.674 298.401 279.16 298.11L279.38 298.37C278.715 301.837 278.825 305.409 279.702 308.829C280.579 312.249 282.201 315.433 284.453 318.152C286.704 320.872 289.529 323.06 292.725 324.56C295.921 326.061 299.409 326.836 302.94 326.83C303.819 326.825 304.696 326.775 305.57 326.68C308.617 329.82 311.737 332.987 314.93 336.18C319.77 341.02 324.553 345.687 329.28 350.18C328.881 353.542 329.2 356.95 330.215 360.18C331.23 363.409 332.918 366.387 335.168 368.917C337.418 371.447 340.178 373.47 343.268 374.855C346.357 376.24 349.705 376.954 353.09 376.95C354.791 376.942 356.487 376.757 358.15 376.4C367.38 384.29 375.78 390.97 382.95 396.11C379.826 400.856 377.625 406.149 376.46 411.71C358.76 408.8 332.95 406.77 303.46 406.19C301.217 403.311 298.345 400.983 295.064 399.383C291.783 397.784 288.18 396.955 284.53 396.961C280.88 396.967 277.28 397.807 274.004 399.417C270.729 401.027 267.864 403.364 265.63 406.25C237.63 406.9 213.15 408.86 196.05 411.62C194.242 407.327 191.225 403.653 187.365 401.046C183.505 398.439 178.971 397.011 174.313 396.937C169.656 396.863 165.078 398.145 161.137 400.628C157.197 403.111 154.063 406.687 152.12 410.92C150.191 404.911 146.578 399.58 141.712 395.562C136.845 391.543 130.928 389.004 124.662 388.246C118.396 387.488 112.044 388.543 106.36 391.286C100.675 394.029 95.8964 398.344 92.59 403.72C89.3071 395.656 83.8032 388.69 76.7178 383.63C69.6325 378.57 61.2567 375.625 52.5639 375.137C43.8712 374.649 35.2184 376.638 27.6112 380.873C20.004 385.108 13.7549 391.414 9.59 399.06C14.4832 305.046 51.5559 215.574 114.59 145.65C112.253 153.583 112.097 162 114.14 170.015C116.183 178.029 120.35 185.344 126.2 191.19H126.14ZM50 467C59.1501 466.984 68.0882 464.243 75.6737 459.126C83.2593 454.009 89.1485 446.748 92.59 438.27C95.9007 443.651 100.686 447.968 106.378 450.709C112.07 453.45 118.429 454.499 124.7 453.733C130.971 452.966 136.89 450.416 141.754 446.384C146.618 442.353 150.223 437.01 152.14 430.99C154.089 435.194 157.214 438.745 161.137 441.212C165.06 443.679 169.614 444.957 174.248 444.893C178.882 444.828 183.398 443.424 187.251 440.848C191.104 438.273 194.128 434.637 195.96 430.38C213.09 433.15 237.64 435.12 265.71 435.76C267.946 438.614 270.8 440.923 274.058 442.513C277.316 444.103 280.893 444.932 284.518 444.939C288.143 444.946 291.723 444.129 294.987 442.551C298.25 440.974 301.114 438.675 303.36 435.83C332.87 435.25 358.71 433.21 376.43 430.3C377.595 435.861 379.796 441.154 382.92 445.9C365.52 458.38 340.85 479.9 314.92 505.85C289.2 531.57 267.83 556.04 255.3 573.41C250.988 571.656 246.258 571.194 241.688 572.081C237.118 572.968 232.905 575.164 229.561 578.403C226.217 581.642 223.887 585.783 222.856 590.323C221.824 594.862 222.135 599.604 223.75 603.97C218.137 601.09 211.816 599.879 205.536 600.48C199.256 601.082 193.28 603.471 188.316 607.365C183.353 611.258 179.609 616.493 177.529 622.449C175.449 628.405 175.119 634.833 176.58 640.97C168.555 637.585 159.735 636.547 151.144 637.978C142.553 639.408 134.544 643.248 128.05 649.051C121.555 654.854 116.842 662.382 114.457 670.759C112.073 679.135 112.115 688.017 114.58 696.37C51.5474 626.439 14.4783 536.959 9.59 442.94C13.5379 450.215 19.3756 456.29 26.4877 460.525C33.5998 464.759 41.7227 466.996 50 467V467ZM158.66 729.31C166.247 729.306 173.715 727.425 180.399 723.835C187.083 720.245 192.775 715.057 196.968 708.735C201.161 702.412 203.726 695.15 204.433 687.596C205.14 680.042 203.967 672.431 201.02 665.44C203.527 666.029 206.094 666.328 208.67 666.33C214.337 666.332 219.91 664.875 224.85 662.099C229.791 659.322 233.933 655.32 236.878 650.478C239.823 645.636 241.472 640.118 241.665 634.454C241.858 628.79 240.589 623.171 237.98 618.14C242.329 619.728 247.044 620.025 251.558 618.994C256.071 617.963 260.19 615.649 263.418 612.33C266.646 609.011 268.846 604.829 269.751 600.289C270.656 595.748 270.229 591.043 268.52 586.74C285.89 574.22 310.4 552.82 336.15 527.07C362.09 501.13 383.61 476.45 396.1 459.07C400.843 462.194 406.132 464.395 411.69 465.56C408.22 486.68 406 519.35 406 556.02C406 592.38 408.19 624.81 411.61 645.95C407.317 647.757 403.642 650.773 401.034 654.633C398.426 658.492 396.997 663.026 396.922 667.683C396.847 672.341 398.128 676.919 400.61 680.86C403.092 684.802 406.667 687.936 410.9 689.88C404.897 691.814 399.574 695.429 395.561 700.295C391.549 705.161 389.015 711.075 388.259 717.336C387.504 723.598 388.559 729.945 391.299 735.626C394.039 741.307 398.349 746.083 403.72 749.39C395.656 752.673 388.69 758.177 383.63 765.262C378.57 772.347 375.625 780.723 375.137 789.416C374.649 798.109 376.638 806.762 380.873 814.369C385.108 821.976 391.414 828.225 399.06 832.39C305.031 827.523 215.537 790.468 145.59 727.44C149.835 728.684 154.236 729.314 158.66 729.31V729.31ZM438.27 749.37C443.651 746.059 447.968 741.274 450.709 735.582C453.45 729.89 454.499 723.531 453.733 717.26C452.966 710.989 450.416 705.07 446.384 700.206C442.353 695.342 437.01 691.737 430.99 689.82C435.194 687.871 438.745 684.746 441.212 680.823C443.679 676.9 444.957 672.346 444.893 667.712C444.828 663.078 443.424 658.562 440.848 654.709C438.273 650.856 434.637 647.832 430.38 646C433.8 624.86 436 592.4 436 556C436 519.33 433.77 486.66 430.31 465.54C435.868 464.375 441.157 462.173 445.9 459.05C458.39 476.44 479.9 501.12 505.9 527.05C510.773 531.917 515.583 536.617 520.33 541.15C519.873 544.941 520.331 548.787 521.666 552.365C523 555.942 525.172 559.149 528 561.715C530.827 564.281 534.229 566.133 537.919 567.115C541.609 568.097 545.481 568.181 549.21 567.36C558.21 575.06 566.42 581.59 573.46 586.67C571.705 590.983 571.242 595.714 572.129 600.286C573.016 604.857 575.214 609.072 578.454 612.416C581.694 615.761 585.838 618.09 590.379 619.121C594.92 620.151 599.663 619.838 604.03 618.22C601.446 623.25 600.197 628.86 600.405 634.512C600.613 640.164 602.27 645.667 605.216 650.494C608.163 655.321 612.301 659.31 617.232 662.078C622.164 664.846 627.725 666.299 633.38 666.3C635.956 666.295 638.523 665.993 641.03 665.4C637.645 673.424 636.607 682.245 638.038 690.836C639.468 699.427 643.308 707.436 649.111 713.93C654.914 720.425 662.442 725.138 670.819 727.523C679.195 729.907 688.077 729.865 696.43 727.4C626.5 790.443 537.015 827.517 442.99 832.4C450.635 828.234 456.941 821.984 461.175 814.377C465.409 806.769 467.397 798.116 466.908 789.423C466.419 780.73 463.473 772.355 458.412 765.27C453.352 758.185 446.384 752.682 438.32 749.4L438.27 749.37ZM715.86 650.81C709.381 644.342 701.12 639.952 692.134 638.201C683.148 636.451 673.844 637.418 665.41 640.98C666.722 635.496 666.606 629.767 665.074 624.34C663.542 618.913 660.646 613.969 656.66 609.98C651.704 605.023 645.3 601.771 638.374 600.692C631.448 599.614 624.359 600.765 618.13 603.98C619.724 599.63 620.025 594.912 618.996 590.395C617.968 585.878 615.654 581.755 612.334 578.524C609.014 575.293 604.83 573.091 600.287 572.186C595.743 571.28 591.035 571.709 586.73 573.42C581.66 566.42 575.15 558.19 567.46 549.21C568.326 545.449 568.269 541.534 567.295 537.799C566.32 534.064 564.457 530.621 561.863 527.762C559.27 524.903 556.024 522.715 552.401 521.382C548.779 520.05 544.888 519.613 541.06 520.11C536.56 515.41 531.893 510.64 527.06 505.8C501.06 479.85 476.43 458.33 459.06 445.85C461.781 441.724 463.807 437.181 465.06 432.4C467.03 435.993 469.887 439.022 473.359 441.198C476.831 443.374 480.802 444.624 484.895 444.831C488.987 445.037 493.064 444.193 496.737 442.377C500.411 440.562 503.558 437.836 505.88 434.46H506.36C508.484 437.539 511.298 440.08 514.578 441.878C517.858 443.677 521.513 444.684 525.251 444.819C528.989 444.954 532.707 444.213 536.108 442.656C539.51 441.099 542.5 438.768 544.84 435.85C548.52 435.85 552.25 435.92 556.02 435.92C592.38 435.92 624.81 433.73 645.95 430.31C647.758 434.603 650.775 438.277 654.635 440.884C658.495 443.491 663.03 444.919 667.687 444.993C672.344 445.067 676.922 443.785 680.863 441.302C684.803 438.819 687.937 435.243 689.88 431.01C691.813 437.016 695.427 442.341 700.294 446.356C705.161 450.37 711.077 452.906 717.341 453.661C723.604 454.417 729.953 453.361 735.635 450.619C741.317 447.877 746.094 443.564 749.4 438.19C752.682 446.254 758.185 453.222 765.27 458.282C772.355 463.343 780.73 466.289 789.423 466.778C798.116 467.267 806.769 465.279 814.377 461.045C821.984 456.811 828.234 450.505 832.4 442.86C827.511 536.884 790.438 626.367 727.4 696.3C729.737 688.38 729.898 679.977 727.868 671.973C725.837 663.968 721.689 656.659 715.86 650.81V650.81Z" stroke="url(#paint11_linear_103_6)" stroke-miterlimit="10"/>
<path opacity="0.8" d="M421 648C546.369 648 648 546.369 648 421C648 295.631 546.369 194 421 194C295.631 194 194 295.631 194 421C194 546.369 295.631 648 421 648Z" stroke="url(#paint12_linear_103_6)" stroke-width="2" stroke-miterlimit="10"/>
<path d="M275.23 566.77L566.77 275.23" stroke="#FF9DFF" stroke-width="2" stroke-miterlimit="10"/>
<path d="M270.24 571.76L280.15 567.6L275.6 566.4L274.4 561.85L270.24 571.76Z" fill="#FF9DFF"/>
<path d="M571.76 270.24L567.6 280.15L566.4 275.6L561.85 274.4L571.76 270.24Z" fill="#FF9DFF"/>
<path d="M566.77 566.77L275.23 275.23" stroke="#00AAA1" stroke-width="2" stroke-miterlimit="10"/>
<path d="M571.76 571.76L567.6 561.85L566.39 566.4L561.85 567.6L571.76 571.76Z" fill="#00AAA1"/>
<path d="M270.24 270.24L280.15 274.4L275.61 275.6L274.4 280.15L270.24 270.24Z" fill="#00AAA1"/>
<path d="M495.32 279.8C495.322 277.97 494.803 276.177 493.824 274.631C492.845 273.085 491.446 271.85 489.79 271.07C488.135 270.289 486.292 269.996 484.476 270.225C482.66 270.454 480.947 271.194 479.537 272.361C478.127 273.527 477.077 275.07 476.512 276.811C475.946 278.551 475.888 280.417 476.343 282.189C476.799 283.962 477.75 285.568 479.084 286.82C480.419 288.072 482.082 288.918 483.88 289.26V291.85H480.59V295.44H483.91V299.06H487.52V295.44H490.83V291.83H487.49V289.24C489.687 288.818 491.669 287.646 493.098 285.924C494.526 284.202 495.311 282.037 495.32 279.8V279.8ZM479.66 279.8C479.66 278.613 480.012 277.453 480.671 276.467C481.33 275.48 482.268 274.711 483.364 274.257C484.46 273.803 485.667 273.684 486.831 273.915C487.994 274.147 489.064 274.718 489.903 275.557C490.742 276.396 491.313 277.466 491.545 278.629C491.776 279.793 491.657 281 491.203 282.096C490.749 283.192 489.98 284.13 488.993 284.789C488.007 285.448 486.847 285.8 485.66 285.8C484.069 285.8 482.543 285.168 481.417 284.043C480.292 282.917 479.66 281.391 479.66 279.8V279.8Z" fill="#FF9DFF"/>
<path d="M373.65 272.07L362.81 273.28L363.21 276.87L368.43 276.29L365.06 279.65C363.019 278.248 360.528 277.658 358.075 277.998C355.622 278.337 353.384 279.581 351.801 281.485C350.218 283.388 349.403 285.815 349.516 288.289C349.63 290.763 350.663 293.105 352.414 294.856C354.165 296.607 356.507 297.64 358.981 297.754C361.455 297.867 363.881 297.052 365.785 295.469C367.689 293.885 368.933 291.648 369.272 289.195C369.612 286.742 369.022 284.251 367.62 282.21L370.98 278.84L370.4 284.07L373.99 284.47L375.2 273.62L373.65 272.07ZM363.91 292.31C363.022 293.189 361.894 293.785 360.668 294.023C359.442 294.262 358.173 294.133 357.02 293.652C355.867 293.171 354.883 292.359 354.19 291.32C353.497 290.28 353.128 289.059 353.128 287.81C353.128 286.561 353.497 285.34 354.19 284.3C354.883 283.261 355.867 282.45 357.02 281.968C358.173 281.487 359.442 281.358 360.668 281.597C361.894 281.835 363.022 282.432 363.91 283.31C364.506 283.898 364.979 284.599 365.303 285.371C365.626 286.144 365.792 286.973 365.792 287.81C365.792 288.647 365.626 289.476 365.303 290.249C364.979 291.021 364.506 291.722 363.91 292.31V292.31Z" fill="url(#paint13_linear_103_6)"/>
<path d="M667.91 421L663.67 425.24" stroke="#F18553" stroke-miterlimit="10"/>
<path d="M655.44 433.46L429.35 659.56" stroke="#F18553" stroke-width="2" stroke-miterlimit="10" stroke-dasharray="11.63 11.63"/>
<path d="M425.24 663.67L421 667.91" stroke="#F18553" stroke-miterlimit="10"/>
<path d="M421 91C443.644 91 462 72.6437 462 50C462 27.3563 443.644 9 421 9C398.356 9 380 27.3563 380 50C380 72.6437 398.356 91 421 91Z" fill="url(#paint14_radial_103_6)"/>
<path d="M421 148.72C436.464 148.72 449 136.184 449 120.72C449 105.256 436.464 92.72 421 92.72C405.536 92.72 393 105.256 393 120.72C393 136.184 405.536 148.72 421 148.72Z" fill="url(#paint15_radial_103_6)"/>
<path d="M421.09 192.94C431.583 192.94 440.09 184.433 440.09 173.94C440.09 163.447 431.583 154.94 421.09 154.94C410.596 154.94 402.09 163.447 402.09 173.94C402.09 184.433 410.596 192.94 421.09 192.94Z" fill="url(#paint16_radial_103_6)"/>
<path d="M421 833C443.644 833 462 814.644 462 792C462 769.356 443.644 751 421 751C398.356 751 380 769.356 380 792C380 814.644 398.356 833 421 833Z" fill="url(#paint17_radial_103_6)"/>
<path d="M421 749.28C436.464 749.28 449 736.744 449 721.28C449 705.816 436.464 693.28 421 693.28C405.536 693.28 393 705.816 393 721.28C393 736.744 405.536 749.28 421 749.28Z" fill="url(#paint18_radial_103_6)"/>
<path d="M420.91 687.06C431.404 687.06 439.91 678.553 439.91 668.06C439.91 657.567 431.404 649.06 420.91 649.06C410.417 649.06 401.91 657.567 401.91 668.06C401.91 678.553 410.417 687.06 420.91 687.06Z" fill="url(#paint19_radial_103_6)"/>
<path d="M50 462C72.6437 462 91 443.644 91 421C91 398.356 72.6437 380 50 380C27.3563 380 9 398.356 9 421C9 443.644 27.3563 462 50 462Z" fill="url(#paint20_radial_103_6)"/>
<path d="M120.72 449C136.184 449 148.72 436.464 148.72 421C148.72 405.536 136.184 393 120.72 393C105.256 393 92.7202 405.536 92.7202 421C92.7202 436.464 105.256 449 120.72 449Z" fill="url(#paint21_radial_103_6)"/>
<path d="M173.94 439.91C184.433 439.91 192.94 431.403 192.94 420.91C192.94 410.417 184.433 401.91 173.94 401.91C163.447 401.91 154.94 410.417 154.94 420.91C154.94 431.403 163.447 439.91 173.94 439.91Z" fill="url(#paint22_radial_103_6)"/>
<path d="M792 462C814.644 462 833 443.644 833 421C833 398.356 814.644 380 792 380C769.356 380 751 398.356 751 421C751 443.644 769.356 462 792 462Z" fill="url(#paint23_radial_103_6)"/>
<path d="M721.28 449C736.744 449 749.28 436.464 749.28 421C749.28 405.536 736.744 393 721.28 393C705.816 393 693.28 405.536 693.28 421C693.28 436.464 705.816 449 721.28 449Z" fill="url(#paint24_radial_103_6)"/>
<path d="M668.06 440.09C678.553 440.09 687.06 431.583 687.06 421.09C687.06 410.597 678.553 402.09 668.06 402.09C657.567 402.09 649.06 410.597 649.06 421.09C649.06 431.583 657.567 440.09 668.06 440.09Z" fill="url(#paint25_radial_103_6)"/>
<path d="M158.66 724.34C181.304 724.34 199.66 705.984 199.66 683.34C199.66 660.696 181.304 642.34 158.66 642.34C136.016 642.34 117.66 660.696 117.66 683.34C117.66 705.984 136.016 724.34 158.66 724.34Z" fill="url(#paint26_radial_103_6)"/>
<path d="M208.67 661.33C224.134 661.33 236.67 648.794 236.67 633.33C236.67 617.866 224.134 605.33 208.67 605.33C193.206 605.33 180.67 617.866 180.67 633.33C180.67 648.794 193.206 661.33 208.67 661.33Z" fill="url(#paint27_radial_103_6)"/>
<path d="M246.24 614.63C256.734 614.63 265.24 606.123 265.24 595.63C265.24 585.137 256.734 576.63 246.24 576.63C235.747 576.63 227.24 585.137 227.24 595.63C227.24 606.123 235.747 614.63 246.24 614.63Z" fill="url(#paint28_radial_103_6)"/>
<path d="M683.34 199.66C705.984 199.66 724.34 181.304 724.34 158.66C724.34 136.016 705.984 117.66 683.34 117.66C660.696 117.66 642.34 136.016 642.34 158.66C642.34 181.304 660.696 199.66 683.34 199.66Z" fill="url(#paint29_radial_103_6)"/>
<path d="M633.33 236.67C648.794 236.67 661.33 224.134 661.33 208.67C661.33 193.206 648.794 180.67 633.33 180.67C617.866 180.67 605.33 193.206 605.33 208.67C605.33 224.134 617.866 236.67 633.33 236.67Z" fill="url(#paint30_radial_103_6)"/>
<path d="M595.76 265.37C606.253 265.37 614.76 256.863 614.76 246.37C614.76 235.877 606.253 227.37 595.76 227.37C585.266 227.37 576.76 235.877 576.76 246.37C576.76 256.863 585.266 265.37 595.76 265.37Z" fill="url(#paint31_radial_103_6)"/>
<path d="M421.09 303.44C431.583 303.44 440.09 294.933 440.09 284.44C440.09 273.947 431.583 265.44 421.09 265.44C410.596 265.44 402.09 273.947 402.09 284.44C402.09 294.933 410.596 303.44 421.09 303.44Z" fill="url(#paint32_radial_103_6)"/>
<path d="M284.59 439.94C295.083 439.94 303.59 431.433 303.59 420.94C303.59 410.447 295.083 401.94 284.59 401.94C274.096 401.94 265.59 410.447 265.59 420.94C265.59 431.433 274.096 439.94 284.59 439.94Z" fill="url(#paint33_radial_103_6)"/>
<path d="M353.09 371.94C363.583 371.94 372.09 363.433 372.09 352.94C372.09 342.447 363.583 333.94 353.09 333.94C342.596 333.94 334.09 342.447 334.09 352.94C334.09 363.433 342.596 371.94 353.09 371.94Z" fill="url(#paint34_radial_103_6)"/>
<path d="M683.34 724.34C705.984 724.34 724.34 705.984 724.34 683.34C724.34 660.696 705.984 642.34 683.34 642.34C660.696 642.34 642.34 660.696 642.34 683.34C642.34 705.984 660.696 724.34 683.34 724.34Z" fill="url(#paint35_radial_103_6)"/>
<path d="M633.33 661.33C648.794 661.33 661.33 648.794 661.33 633.33C661.33 617.866 648.794 605.33 633.33 605.33C617.866 605.33 605.33 617.866 605.33 633.33C605.33 648.794 617.866 661.33 633.33 661.33Z" fill="url(#paint36_radial_103_6)"/>
<path d="M595.63 614.76C606.123 614.76 614.63 606.253 614.63 595.76C614.63 585.267 606.123 576.76 595.63 576.76C585.136 576.76 576.63 585.267 576.63 595.76C576.63 606.253 585.136 614.76 595.63 614.76Z" fill="url(#paint37_radial_103_6)"/>
<path d="M544.09 562.94C554.583 562.94 563.09 554.433 563.09 543.94C563.09 533.447 554.583 524.94 544.09 524.94C533.596 524.94 525.09 533.447 525.09 543.94C525.09 554.433 533.596 562.94 544.09 562.94Z" fill="url(#paint38_radial_103_6)"/>
<path d="M158.66 199.66C181.304 199.66 199.66 181.304 199.66 158.66C199.66 136.016 181.304 117.66 158.66 117.66C136.016 117.66 117.66 136.016 117.66 158.66C117.66 181.304 136.016 199.66 158.66 199.66Z" fill="url(#paint39_radial_103_6)"/>
<path d="M208.67 236.67C224.134 236.67 236.67 224.134 236.67 208.67C236.67 193.206 224.134 180.67 208.67 180.67C193.206 180.67 180.67 193.206 180.67 208.67C180.67 224.134 193.206 236.67 208.67 236.67Z" fill="url(#paint40_radial_103_6)"/>
<path d="M246.37 265.24C256.864 265.24 265.37 256.733 265.37 246.24C265.37 235.747 256.864 227.24 246.37 227.24C235.877 227.24 227.37 235.747 227.37 246.24C227.37 256.733 235.877 265.24 246.37 265.24Z" fill="url(#paint41_radial_103_6)"/>
<path d="M274.65 293.53C285.143 293.53 293.65 285.023 293.65 274.53C293.65 264.037 285.143 255.53 274.65 255.53C264.156 255.53 255.65 264.037 255.65 274.53C255.65 285.023 264.156 293.53 274.65 293.53Z" fill="url(#paint42_radial_103_6)"/>
<path d="M302.94 321.81C313.433 321.81 321.94 313.303 321.94 302.81C321.94 292.317 313.433 283.81 302.94 283.81C292.447 283.81 283.94 292.317 283.94 302.81C283.94 313.303 292.447 321.81 302.94 321.81Z" fill="url(#paint43_radial_103_6)"/>
<path d="M526.09 439.94C536.583 439.94 545.09 431.433 545.09 420.94C545.09 410.447 536.583 401.94 526.09 401.94C515.596 401.94 507.09 410.447 507.09 420.94C507.09 431.433 515.596 439.94 526.09 439.94Z" fill="url(#paint44_radial_103_6)"/>
<path d="M483.09 624.94C493.583 624.94 502.09 616.433 502.09 605.94C502.09 595.447 493.583 586.94 483.09 586.94C472.596 586.94 464.09 595.447 464.09 605.94C464.09 616.433 472.596 624.94 483.09 624.94Z" fill="url(#paint45_radial_103_6)"/>
<path d="M605.09 500.94C615.583 500.94 624.09 492.433 624.09 481.94C624.09 471.447 615.583 462.94 605.09 462.94C594.596 462.94 586.09 471.447 586.09 481.94C586.09 492.433 594.596 500.94 605.09 500.94Z" fill="url(#paint46_radial_103_6)"/>
<path d="M486.09 439.94C496.583 439.94 505.09 431.433 505.09 420.94C505.09 410.447 496.583 401.94 486.09 401.94C475.596 401.94 467.09 410.447 467.09 420.94C467.09 431.433 475.596 439.94 486.09 439.94Z" fill="url(#paint47_radial_103_6)"/>
<path d="M494.3 535.7C493.463 534.838 492.426 534.198 491.282 533.835C490.137 533.472 488.92 533.398 487.74 533.62C486.805 533.736 485.907 534.052 485.104 534.545C484.302 535.038 483.615 535.698 483.09 536.48C482.565 535.698 481.878 535.038 481.076 534.545C480.273 534.052 479.375 533.736 478.44 533.62C477.26 533.398 476.043 533.472 474.898 533.835C473.754 534.198 472.717 534.838 471.88 535.7C470.633 537.064 469.96 538.856 470.001 540.704C470.042 542.552 470.794 544.313 472.1 545.62C473.1 546.62 478.49 551.78 481.33 554.49C481.804 554.942 482.435 555.195 483.09 555.195C483.745 555.195 484.376 554.942 484.85 554.49C487.69 551.78 493.06 546.64 494.08 545.62C495.386 544.313 496.138 542.552 496.179 540.704C496.22 538.856 495.547 537.064 494.3 535.7Z" fill="url(#paint48_radial_103_6)"/>
<path d="M551.14 490.31C549.734 491.564 547.95 492.314 546.07 492.44V495.72H543.14V492.53C541.732 492.456 540.34 492.197 539 491.76C537.859 491.422 536.787 490.888 535.83 490.18L537.45 486.6C538.25 487.182 539.129 487.647 540.06 487.98C541.05 488.353 542.086 488.588 543.14 488.68V483.79C541.937 483.516 540.76 483.142 539.62 482.67C538.682 482.275 537.855 481.657 537.21 480.87C536.519 479.969 536.165 478.855 536.21 477.72C536.202 476.938 536.356 476.163 536.662 475.444C536.969 474.724 537.421 474.076 537.99 473.54C539.407 472.272 541.212 471.522 543.11 471.41V468.16H546.04V471.35C548.14 471.453 550.182 472.068 551.99 473.14L550.59 476.75C549.212 475.942 547.685 475.421 546.1 475.22V480.22C547.286 480.474 548.447 480.832 549.57 481.29C550.504 481.678 551.325 482.293 551.96 483.08C552.653 483.969 553.007 485.074 552.96 486.2C552.963 486.975 552.802 487.741 552.488 488.449C552.175 489.157 551.715 489.791 551.14 490.31V490.31ZM541.52 478.68C542.001 479.053 542.552 479.325 543.14 479.48V475.31C542.52 475.424 541.947 475.716 541.49 476.15C541.15 476.508 540.963 476.986 540.97 477.48C540.963 477.709 541.01 477.936 541.105 478.144C541.2 478.352 541.342 478.536 541.52 478.68V478.68ZM547.65 487.81C547.821 487.646 547.956 487.449 548.048 487.23C548.139 487.012 548.184 486.777 548.18 486.54C548.186 486.312 548.14 486.086 548.047 485.879C547.953 485.671 547.814 485.487 547.64 485.34C547.17 484.975 546.638 484.698 546.07 484.52V488.52C546.652 488.433 547.199 488.187 547.65 487.81V487.81Z" fill="#18A95D"/>
<path d="M421 548.38V459.01" stroke="url(#paint49_linear_103_6)" stroke-width="2" stroke-miterlimit="10"/>
<path d="M421 555.45L425.07 545.5L421 547.86L416.94 545.5L421 555.45Z" fill="url(#paint50_linear_103_6)"/>
<path d="M421 462C443.644 462 462 443.644 462 421C462 398.356 443.644 380 421 380C398.356 380 380 398.356 380 421C380 443.644 398.356 462 421 462Z" fill="url(#paint51_radial_103_6)"/>
<path d="M421 462C443.644 462 462 443.644 462 421C462 398.356 443.644 380 421 380C398.356 380 380 398.356 380 421C380 443.644 398.356 462 421 462Z" stroke="#FFB851" stroke-width="4" stroke-miterlimit="10"/>
<text fill="white" xml:space="preserve" style="white-space: pre" font-family="Montserrat" font-size="50" font-weight="bold" letter-spacing="0em"><tspan x="25.292" y="438.925">19</tspan></text>
<text fill="white" xml:space="preserve" style="white-space: pre" font-family="Montserrat" font-size="50" font-weight="bold" letter-spacing="0em"><tspan x="398.207" y="809.925">17</tspan></text>
<text fill="white" xml:space="preserve" style="white-space: pre" font-family="Montserrat" font-size="50" font-weight="bold" letter-spacing="0em"><tspan x="658.464" y="700.925">12</tspan></text>
<text fill="white" xml:space="preserve" style="white-space: pre" font-family="Montserrat" font-size="50" font-weight="bold" letter-spacing="0em"><tspan x="396.464" y="67.925">12</tspan></text>
<text fill="white" xml:space="preserve" style="white-space: pre" font-family="Montserrat" font-size="50" font-weight="bold" letter-spacing="0em"><tspan x="776.082" y="438.925">6</tspan></text>
<text fill="white" xml:space="preserve" style="white-space: pre" font-family="Montserrat" font-size="50" font-weight="bold" letter-spacing="0em"><tspan x="142.082" y="176.925">6</tspan></text>
<text fill="#2A2B47" xml:space="preserve" style="white-space: pre" font-family="Montserrat" font-size="50" font-weight="bold" letter-spacing="0em"><tspan x="143.132" y="700.925">5</tspan></text>
<text fill="#2A2B47" xml:space="preserve" style="white-space: pre" font-family="Montserrat" font-size="50" font-weight="bold" letter-spacing="0em"><tspan x="668.132" y="176.925">5</tspan></text>
<text fill="#2A2B47" xml:space="preserve" style="white-space: pre" font-family="Montserrat" font-size="50" font-weight="bold" letter-spacing="0em"><tspan x="395.292" y="437.925">19</tspan></text>
<text fill="white" xml:space="preserve" style="white-space: pre" font-family="Montserrat" font-size="36" font-weight="bold" letter-spacing="0em"><tspan x="111.039" y="434.906">9</tspan></text>
<text fill="white" xml:space="preserve" style="white-space: pre" font-family="Montserrat" font-size="36" font-weight="bold" letter-spacing="0em"><tspan x="411.039" y="132.906">9</tspan></text>
<text fill="#2A2B47" xml:space="preserve" style="white-space: pre" font-family="Montserrat" font-size="36" font-weight="bold" letter-spacing="0em"><tspan x="197.039" y="645.906">9</tspan></text>
<text fill="#2A2B47" xml:space="preserve" style="white-space: pre" font-family="Montserrat" font-size="36" font-weight="bold" letter-spacing="0em"><tspan x="621.117" y="221.906">8</tspan></text>
<text fill="#2A2B47" xml:space="preserve" style="white-space: pre" font-family="Montserrat" font-size="36" font-weight="bold" letter-spacing="0em"><tspan x="198.039" y="221.906">9</tspan></text>
<text fill="#2A2B47" xml:space="preserve" style="white-space: pre" font-family="Montserrat" font-size="36" font-weight="bold" letter-spacing="0em"><tspan x="411.039" y="733.906">9</tspan></text>
<text fill="#2A2B47" xml:space="preserve" style="white-space: pre" font-family="Montserrat" font-size="36" font-weight="bold" letter-spacing="0em"><tspan x="624.039" y="645.906">9</tspan></text>
<text fill="#2A2B47" xml:space="preserve" style="white-space: pre" font-family="Montserrat" font-size="36" font-weight="bold" letter-spacing="0em"><tspan x="710.039" y="433.906">9</tspan></text>
<text fill="#2A2B47" xml:space="preserve" style="white-space: pre" font-family="Montserrat" font-size="26" font-weight="bold" letter-spacing="0em"><tspan x="161.086" y="431.321">10</tspan></text>
<text fill="#2A2B47" xml:space="preserve" style="white-space: pre" font-family="Montserrat" font-size="26" font-weight="bold" letter-spacing="0em"><tspan x="409.132" y="183.321">19</tspan></text>
<text fill="#2A2B47" xml:space="preserve" style="white-space: pre" font-family="Montserrat" font-size="26" font-weight="bold" letter-spacing="0em"><tspan x="295.307" y="312.321">3</tspan></text>
<text fill="white" xml:space="preserve" style="white-space: pre" font-family="Montserrat" font-size="26" font-weight="bold" letter-spacing="0em"><tspan x="261.086" y="284.321">10</tspan></text>
<text fill="white" xml:space="preserve" style="white-space: pre" font-family="Montserrat" font-size="26" font-weight="bold" letter-spacing="0em"><tspan x="339.086" y="363.321">10</tspan></text>
<text fill="#2A2B47" xml:space="preserve" style="white-space: pre" font-family="Montserrat" font-size="26" font-weight="bold" letter-spacing="0em"><tspan x="233.086" y="605.321">10</tspan></text>
<text fill="#2A2B47" xml:space="preserve" style="white-space: pre" font-family="Montserrat" font-size="26" font-weight="bold" letter-spacing="0em"><tspan x="473.318" y="615.321">11</tspan></text>
<text fill="#2A2B47" xml:space="preserve" style="white-space: pre" font-family="Montserrat" font-size="26" font-weight="bold" letter-spacing="0em"><tspan x="597.438" y="491.321">7</tspan></text>
<text fill="#2A2B47" xml:space="preserve" style="white-space: pre" font-family="Montserrat" font-size="26" font-weight="bold" letter-spacing="0em"><tspan x="512.086" y="430.321">10</tspan></text>
<text fill="#2A2B47" xml:space="preserve" style="white-space: pre" font-family="Montserrat" font-size="26" font-weight="bold" letter-spacing="0em"><tspan x="588.332" y="255.321">2</tspan></text>
<text fill="#2A2B47" xml:space="preserve" style="white-space: pre" font-family="Montserrat" font-size="26" font-weight="bold" letter-spacing="0em"><tspan x="238.332" y="255.321">2</tspan></text>
<text fill="#2A2B47" xml:space="preserve" style="white-space: pre" font-family="Montserrat" font-size="26" font-weight="bold" letter-spacing="0em"><tspan x="589.307" y="605.321">3</tspan></text>
<text fill="#2A2B47" xml:space="preserve" style="white-space: pre" font-family="Montserrat" font-size="26" font-weight="bold" letter-spacing="0em"><tspan x="478.307" y="430.321">3</tspan></text>
<text fill="white" xml:space="preserve" style="white-space: pre" font-family="Montserrat" font-size="26" font-weight="bold" letter-spacing="0em"><tspan x="407.086" y="677.321">10</tspan></text>
<text fill="white" xml:space="preserve" style="white-space: pre" font-family="Montserrat" font-size="26" font-weight="bold" letter-spacing="0em"><tspan x="531.086" y="553.321">10</tspan></text>
<text fill="white" xml:space="preserve" style="white-space: pre" font-family="Montserrat" font-size="26" font-weight="bold" letter-spacing="0em"><tspan x="654.086" y="430.321">10</tspan></text>
<text fill="white" xml:space="preserve" style="white-space: pre" font-family="Montserrat" font-size="26" font-weight="bold" letter-spacing="0em"><tspan x="275.037" y="429.321">4</tspan></text>
<text fill="white" xml:space="preserve" style="white-space: pre" font-family="Montserrat" font-size="26" font-weight="bold" letter-spacing="0em"><tspan x="412.037" y="293.321">4</tspan></text>
<defs>
<linearGradient id="paint0_linear_103_6" x1="167.5" y1="421" x2="674.5" y2="421" gradientUnits="userSpaceOnUse">
<stop stop-color="#FF8CFF"/>
<stop offset="1" stop-color="#00AAA1"/>
</linearGradient>
<linearGradient id="paint1_linear_103_6" x1="62.5044" y1="421.007" x2="779.504" y2="421.008" gradientUnits="userSpaceOnUse">
<stop stop-color="#FF8CFF"/>
<stop offset="1" stop-color="#00AAA1"/>
</linearGradient>
<linearGradient id="paint2_linear_103_6" x1="-nan" y1="-nan" x2="-nan" y2="-nan" gradientUnits="userSpaceOnUse">
<stop stop-color="#FF8CFF"/>
<stop offset="1" stop-color="#00AAA1"/>
</linearGradient>
<linearGradient id="paint3_linear_103_6" x1="-nan" y1="-nan" x2="-nan" y2="-nan" gradientUnits="userSpaceOnUse">
<stop stop-color="#FF8CFF"/>
<stop offset="1" stop-color="#00AAA1"/>
</linearGradient>
<linearGradient id="paint4_linear_103_6" x1="158.31" y1="421" x2="683.69" y2="421" gradientUnits="userSpaceOnUse">
<stop stop-color="#FF8CFF"/>
<stop offset="1" stop-color="#00AAA1"/>
</linearGradient>
<linearGradient id="paint5_linear_103_6" x1="158.31" y1="421" x2="683.69" y2="421" gradientUnits="userSpaceOnUse">
<stop stop-color="#FF8CFF"/>
<stop offset="1" stop-color="#00AAA1"/>
</linearGradient>
<linearGradient id="paint6_linear_103_6" x1="459.1" y1="605.94" x2="507.08" y2="605.94" gradientUnits="userSpaceOnUse">
<stop stop-color="#00AAA1"/>
<stop offset="0.09" stop-color="#31ACAA"/>
<stop offset="0.19" stop-color="#63AEB4"/>
<stop offset="0.29" stop-color="#8BAFBB"/>
<stop offset="0.38" stop-color="#A8B0C1"/>
<stop offset="0.46" stop-color="#BAB1C4"/>
<stop offset="0.52" stop-color="#C0B1C5"/>
<stop offset="0.57" stop-color="#B5B0C3"/>
<stop offset="0.66" stop-color="#97AFBE"/>
<stop offset="0.78" stop-color="#66ACB6"/>
<stop offset="0.93" stop-color="#24A9AC"/>
<stop offset="1" stop-color="#00A7A6"/>
</linearGradient>
<linearGradient id="paint7_linear_103_6" x1="581.1" y1="481.94" x2="629.08" y2="481.94" gradientUnits="userSpaceOnUse">
<stop stop-color="#00AAA1"/>
<stop offset="0.09" stop-color="#31ACAA"/>
<stop offset="0.19" stop-color="#63AEB4"/>
<stop offset="0.29" stop-color="#8BAFBB"/>
<stop offset="0.38" stop-color="#A8B0C1"/>
<stop offset="0.46" stop-color="#BAB1C4"/>
<stop offset="0.52" stop-color="#C0B1C5"/>
<stop offset="0.57" stop-color="#B5B0C3"/>
<stop offset="0.66" stop-color="#97AFBE"/>
<stop offset="0.78" stop-color="#66ACB6"/>
<stop offset="0.93" stop-color="#24A9AC"/>
<stop offset="1" stop-color="#00A7A6"/>
</linearGradient>
<linearGradient id="paint8_linear_103_6" x1="1" y1="421" x2="841" y2="421" gradientUnits="userSpaceOnUse">
<stop stop-color="#00AAA1"/>
<stop offset="0.09" stop-color="#31ACAA"/>
<stop offset="0.19" stop-color="#63AEB4"/>
<stop offset="0.29" stop-color="#8BAFBB"/>
<stop offset="0.38" stop-color="#A8B0C1"/>
<stop offset="0.46" stop-color="#BAB1C4"/>
<stop offset="0.52" stop-color="#C0B1C5"/>
<stop offset="0.57" stop-color="#B5B0C3"/>
<stop offset="0.66" stop-color="#97AFBE"/>
<stop offset="0.78" stop-color="#66ACB6"/>
<stop offset="0.93" stop-color="#24A9AC"/>
<stop offset="1" stop-color="#00A7A6"/>
</linearGradient>
<linearGradient id="paint9_linear_103_6" x1="458.6" y1="605.94" x2="507.58" y2="605.94" gradientUnits="userSpaceOnUse">
<stop stop-color="#FF8CFF"/>
<stop offset="1" stop-color="#00AAA1"/>
</linearGradient>
<linearGradient id="paint10_linear_103_6" x1="580.6" y1="481.94" x2="629.58" y2="481.94" gradientUnits="userSpaceOnUse">
<stop stop-color="#FF8CFF"/>
<stop offset="1" stop-color="#00AAA1"/>
</linearGradient>
<linearGradient id="paint11_linear_103_6" x1="0.5" y1="421" x2="841.5" y2="421" gradientUnits="userSpaceOnUse">
<stop stop-color="#FF8CFF"/>
<stop offset="1" stop-color="#00AAA1"/>
</linearGradient>
<linearGradient id="paint12_linear_103_6" x1="260.13" y1="260.13" x2="581.87" y2="581.86" gradientUnits="userSpaceOnUse">
<stop stop-color="#FF8CFF"/>
<stop offset="1" stop-color="#00AAA1"/>
</linearGradient>
<linearGradient id="paint13_linear_103_6" x1="349.5" y1="284.92" x2="375.2" y2="284.92" gradientUnits="userSpaceOnUse">
<stop stop-color="#BC1F1C"/>
<stop offset="0.63" stop-color="#D13737"/>
<stop offset="1" stop-color="#D94042"/>
</linearGradient>
<radialGradient id="paint14_radial_103_6" cx="0" cy="0" r="1" gradientUnits="userSpaceOnUse" gradientTransform="translate(421 50) scale(41)">
<stop stop-color="#A060D8"/>
<stop offset="0.57" stop-color="#884BD8"/>
<stop offset="1" stop-color="#7438D8"/>
</radialGradient>
<radialGradient id="paint15_radial_103_6" cx="0" cy="0" r="1" gradientUnits="userSpaceOnUse" gradientTransform="translate(421 120.72) scale(28)">
<stop stop-color="#5588D8"/>
<stop offset="0.34" stop-color="#4D70D8"/>
<stop offset="1" stop-color="#3B38D8"/>
</radialGradient>
<radialGradient id="paint16_radial_103_6" cx="0" cy="0" r="1" gradientUnits="userSpaceOnUse" gradientTransform="translate(421.09 173.94) scale(19)">
<stop stop-color="#99D7F7"/>
<stop offset="0.34" stop-color="#81D0F5"/>
<stop offset="1" stop-color="#49BFEF"/>
</radialGradient>
<radialGradient id="paint17_radial_103_6" cx="0" cy="0" r="1" gradientUnits="userSpaceOnUse" gradientTransform="translate(421 792) scale(41)">
<stop stop-color="#EA5458"/>
<stop offset="0.2" stop-color="#E44D50"/>
<stop offset="0.52" stop-color="#D23839"/>
<stop offset="0.91" stop-color="#B51713"/>
<stop offset="1" stop-color="#AE0F0A"/>
</radialGradient>
<radialGradient id="paint18_radial_103_6" cx="0" cy="0" r="1" gradientUnits="userSpaceOnUse" gradientTransform="translate(421 721.28) scale(28)">
<stop stop-color="#E6E6E6"/>
<stop offset="0.35" stop-color="#DCDCDC"/>
<stop offset="1" stop-color="#CDCDCD"/>
</radialGradient>
<radialGradient id="paint19_radial_103_6" cx="0" cy="0" r="1" gradientUnits="userSpaceOnUse" gradientTransform="translate(420.91 668.06) scale(19)">
<stop stop-color="#F5A888"/>
<stop offset="0.8" stop-color="#F28C5E"/>
<stop offset="1" stop-color="#F18553"/>
</radialGradient>
<radialGradient id="paint20_radial_103_6" cx="0" cy="0" r="1" gradientUnits="userSpaceOnUse" gradientTransform="translate(50 421) scale(41)">
<stop stop-color="#A060D8"/>
<stop offset="0.57" stop-color="#884BD8"/>
<stop offset="1" stop-color="#7438D8"/>
</radialGradient>
<radialGradient id="paint21_radial_103_6" cx="0" cy="0" r="1" gradientUnits="userSpaceOnUse" gradientTransform="translate(120.72 421) scale(28)">
<stop stop-color="#5588D8"/>
<stop offset="0.34" stop-color="#4D70D8"/>
<stop offset="1" stop-color="#3B38D8"/>
</radialGradient>
<radialGradient id="paint22_radial_103_6" cx="0" cy="0" r="1" gradientUnits="userSpaceOnUse" gradientTransform="translate(173.94 420.91) scale(0.5)">
<stop stop-color="#99D7F7"/>
<stop offset="0.34" stop-color="#81D0F5"/>
<stop offset="1" stop-color="#49BFEF"/>
</radialGradient>
<radialGradient id="paint23_radial_103_6" cx="0" cy="0" r="1" gradientUnits="userSpaceOnUse" gradientTransform="translate(792 421) scale(41)">
<stop stop-color="#EA5458"/>
<stop offset="0.2" stop-color="#E44D50"/>
<stop offset="0.52" stop-color="#D23839"/>
<stop offset="0.91" stop-color="#B51713"/>
<stop offset="1" stop-color="#AE0F0A"/>
</radialGradient>
<radialGradient id="paint24_radial_103_6" cx="0" cy="0" r="1" gradientUnits="userSpaceOnUse" gradientTransform="translate(721.28 421) scale(28)">
<stop stop-color="#E6E6E6"/>
<stop offset="0.35" stop-color="#DCDCDC"/>
<stop offset="1" stop-color="#CDCDCD"/>
</radialGradient>
<radialGradient id="paint25_radial_103_6" cx="0" cy="0" r="1" gradientUnits="userSpaceOnUse" gradientTransform="translate(668.06 421.09) scale(0.5)">
<stop stop-color="#F5A888"/>
<stop offset="0.8" stop-color="#F28C5E"/>
<stop offset="1" stop-color="#F18553"/>
</radialGradient>
<radialGradient id="paint26_radial_103_6" cx="0" cy="0" r="1" gradientUnits="userSpaceOnUse" gradientTransform="translate(158.66 683.34) scale(41)">
<stop stop-color="#E6E6E6"/>
<stop offset="0.35" stop-color="#DCDCDC"/>
<stop offset="1" stop-color="#CDCDCD"/>
</radialGradient>
<radialGradient id="paint27_radial_103_6" cx="0" cy="0" r="1" gradientUnits="userSpaceOnUse" gradientTransform="translate(208.67 633.33) scale(28)">
<stop stop-color="#E6E6E6"/>
<stop offset="0.35" stop-color="#DCDCDC"/>
<stop offset="1" stop-color="#CDCDCD"/>
</radialGradient>
<radialGradient id="paint28_radial_103_6" cx="0" cy="0" r="1" gradientUnits="userSpaceOnUse" gradientTransform="translate(246.24 595.63) scale(19 19)">
<stop stop-color="#E6E6E6"/>
<stop offset="0.35" stop-color="#DCDCDC"/>
<stop offset="1" stop-color="#CDCDCD"/>
</radialGradient>
<radialGradient id="paint29_radial_103_6" cx="0" cy="0" r="1" gradientUnits="userSpaceOnUse" gradientTransform="translate(683.34 158.66) scale(41)">
<stop stop-color="#E6E6E6"/>
<stop offset="0.35" stop-color="#DCDCDC"/>
<stop offset="1" stop-color="#CDCDCD"/>
</radialGradient>
<radialGradient id="paint30_radial_103_6" cx="0" cy="0" r="1" gradientUnits="userSpaceOnUse" gradientTransform="translate(633.33 208.67) scale(28)">
<stop stop-color="#E6E6E6"/>
<stop offset="0.35" stop-color="#DCDCDC"/>
<stop offset="1" stop-color="#CDCDCD"/>
</radialGradient>
<radialGradient id="paint31_radial_103_6" cx="0" cy="0" r="1" gradientUnits="userSpaceOnUse" gradientTransform="translate(595.76 246.37) scale(19)">
<stop stop-color="#E6E6E6"/>
<stop offset="0.35" stop-color="#DCDCDC"/>
<stop offset="1" stop-color="#CDCDCD"/>
</radialGradient>
<radialGradient id="paint32_radial_103_6" cx="0" cy="0" r="1" gradientUnits="userSpaceOnUse" gradientTransform="translate(421.09 284.44) scale(19)">
<stop stop-color="#A9CB5E"/>
<stop offset="0.34" stop-color="#9AC762"/>
<stop offset="1" stop-color="#73BB6B"/>
</radialGradient>
<radialGradient id="paint33_radial_103_6" cx="0" cy="0" r="1" gradientUnits="userSpaceOnUse" gradientTransform="translate(284.59 420.94) scale(0.5)">
<stop stop-color="#A9CB5E"/>
<stop offset="0.34" stop-color="#9AC762"/>
<stop offset="1" stop-color="#73BB6B"/>
</radialGradient>
<radialGradient id="paint34_radial_103_6" cx="0" cy="0" r="1" gradientUnits="userSpaceOnUse" gradientTransform="translate(353.09 352.94) scale(0.5)">
<stop stop-color="#A9CB5E"/>
<stop offset="0.34" stop-color="#9AC762"/>
<stop offset="1" stop-color="#73BB6B"/>
</radialGradient>
<radialGradient id="paint35_radial_103_6" cx="0" cy="0" r="1" gradientUnits="userSpaceOnUse" gradientTransform="translate(683.34 683.34) scale(41)">
<stop stop-color="#EA5458"/>
<stop offset="0.2" stop-color="#E44D50"/>
<stop offset="0.52" stop-color="#D23839"/>
<stop offset="0.91" stop-color="#B51713"/>
<stop offset="1" stop-color="#AE0F0A"/>
</radialGradient>
<radialGradient id="paint36_radial_103_6" cx="0" cy="0" r="1" gradientUnits="userSpaceOnUse" gradientTransform="translate(633.33 633.33) scale(28)">
<stop stop-color="#E6E6E6"/>
<stop offset="0.35" stop-color="#DCDCDC"/>
<stop offset="1" stop-color="#CDCDCD"/>
</radialGradient>
<radialGradient id="paint37_radial_103_6" cx="0" cy="0" r="1" gradientUnits="userSpaceOnUse" gradientTransform="translate(595.63 595.76) scale(19)">
<stop stop-color="#E6E6E6"/>
<stop offset="0.35" stop-color="#DCDCDC"/>
<stop offset="1" stop-color="#CDCDCD"/>
</radialGradient>
<radialGradient id="paint38_radial_103_6" cx="0" cy="0" r="1" gradientUnits="userSpaceOnUse" gradientTransform="translate(544.09 543.94) scale(0.5)">
<stop stop-color="#F5A888"/>
<stop offset="0.8" stop-color="#F28C5E"/>
<stop offset="1" stop-color="#F18553"/>
</radialGradient>
<radialGradient id="paint39_radial_103_6" cx="0" cy="0" r="1" gradientUnits="userSpaceOnUse" gradientTransform="translate(158.66 158.66) scale(41)">
<stop stop-color="#A060D8"/>
<stop offset="0.57" stop-color="#884BD8"/>
<stop offset="1" stop-color="#7438D8"/>
</radialGradient>
<radialGradient id="paint40_radial_103_6" cx="0" cy="0" r="1" gradientUnits="userSpaceOnUse" gradientTransform="translate(208.67 208.67) scale(28)">
<stop stop-color="#E6E6E6"/>
<stop offset="0.35" stop-color="#DCDCDC"/>
<stop offset="1" stop-color="#CDCDCD"/>
</radialGradient>
<radialGradient id="paint41_radial_103_6" cx="0" cy="0" r="1" gradientUnits="userSpaceOnUse" gradientTransform="translate(246.37 246.24) scale(19 19)">
<stop stop-color="#E6E6E6"/>
<stop offset="0.35" stop-color="#DCDCDC"/>
<stop offset="1" stop-color="#CDCDCD"/>
</radialGradient>
<radialGradient id="paint42_radial_103_6" cx="0" cy="0" r="1" gradientUnits="userSpaceOnUse" gradientTransform="translate(274.65 274.53) scale(19)">
<stop stop-color="#5588D8"/>
<stop offset="0.34" stop-color="#4D70D8"/>
<stop offset="1" stop-color="#3B38D8"/>
</radialGradient>
<radialGradient id="paint43_radial_103_6" cx="0" cy="0" r="1" gradientUnits="userSpaceOnUse" gradientTransform="translate(302.94 302.81) scale(0.5)">
<stop stop-color="#99D7F7"/>
<stop offset="0.34" stop-color="#81D0F5"/>
<stop offset="1" stop-color="#49BFEF"/>
</radialGradient>
<radialGradient id="paint44_radial_103_6" cx="0" cy="0" r="1" gradientUnits="userSpaceOnUse" gradientTransform="translate(526.09 420.94) scale(19 19)">
<stop stop-color="#FFE966"/>
<stop offset="0.52" stop-color="#FFD15C"/>
<stop offset="1" stop-color="#FFB851"/>
</radialGradient>
<radialGradient id="paint45_radial_103_6" cx="0" cy="0" r="1" gradientUnits="userSpaceOnUse" gradientTransform="translate(483.09 605.94) scale(19)">
<stop stop-color="#E6E6E6"/>
<stop offset="0.35" stop-color="#DCDCDC"/>
<stop offset="1" stop-color="#CDCDCD"/>
</radialGradient>
<radialGradient id="paint46_radial_103_6" cx="0" cy="0" r="1" gradientUnits="userSpaceOnUse" gradientTransform="translate(605.09 481.94) scale(19)">
<stop stop-color="#E6E6E6"/>
<stop offset="0.35" stop-color="#DCDCDC"/>
<stop offset="1" stop-color="#CDCDCD"/>
</radialGradient>
<radialGradient id="paint47_radial_103_6" cx="0" cy="0" r="1" gradientUnits="userSpaceOnUse" gradientTransform="translate(486.09 420.94) scale(0.5)">
<stop stop-color="#FFE966"/>
<stop offset="0.52" stop-color="#FFD15C"/>
<stop offset="1" stop-color="#FFB851"/>
</radialGradient>
<radialGradient id="paint48_radial_103_6" cx="0" cy="0" r="1" gradientUnits="userSpaceOnUse" gradientTransform="translate(483.09 544.36) scale(12.02 12.02)">
<stop stop-color="#EA5458"/>
<stop offset="0.2" stop-color="#E44D50"/>
<stop offset="0.52" stop-color="#D23839"/>
<stop offset="0.91" stop-color="#B51713"/>
<stop offset="1" stop-color="#AE0F0A"/>
</radialGradient>
<linearGradient id="paint49_linear_103_6" x1="-nan" y1="-nan" x2="-nan" y2="-nan" gradientUnits="userSpaceOnUse">
<stop stop-color="#FFE966"/>
<stop offset="0.52" stop-color="#FFD15C"/>
<stop offset="1" stop-color="#FFB851"/>
</linearGradient>
<linearGradient id="paint50_linear_103_6" x1="420.5" y1="550.47" x2="421.5" y2="550.47" gradientUnits="userSpaceOnUse">
<stop stop-color="#FFE966"/>
<stop offset="0.52" stop-color="#FFD15C"/>
<stop offset="1" stop-color="#FFB851"/>
</linearGradient>
<radialGradient id="paint51_radial_103_6" cx="0" cy="0" r="1" gradientUnits="userSpaceOnUse" gradientTransform="translate(421 421) scale(41)">
<stop stop-color="#FFE966"/>
<stop offset="0.52" stop-color="#FFD15C"/>
<stop offset="1" stop-color="#FFB851"/>
</radialGradient>
</defs>
</svg>
